<svg version="1.2" xmlns="http://www.w3.org/2000/svg" viewBox="0 0 18 18" width="18" height="18">
	<title>icon-svg</title>
	<style>
		.s0 { fill: none;stroke: #000000;stroke-linecap: round;stroke-linejoin: round;stroke-width: 1.5 } 
	</style>
	<path id="Layer" class="s0" d="m0.8 3q0-0.4 0.1-0.9 0.2-0.4 0.5-0.7 0.3-0.3 0.7-0.5 0.5-0.1 0.9-0.1l2.3-0.1q0.4 0.1 0.8 0.2 0.4 0.2 0.7 0.5 0.4 0.3 0.5 0.7 0.2 0.5 0.2 0.9v2.3q0 0.4-0.2 0.8-0.1 0.4-0.5 0.7-0.3 0.4-0.7 0.5-0.4 0.2-0.8 0.2h-2.3q-0.4 0-0.9-0.2-0.4-0.1-0.7-0.5-0.3-0.3-0.5-0.7-0.1-0.4-0.1-0.8zm0 9.7q0-0.4 0.1-0.9 0.2-0.4 0.5-0.7 0.3-0.3 0.7-0.5 0.5-0.1 0.9-0.1h2.3q0.4 0 0.8 0.1 0.4 0.2 0.7 0.5 0.4 0.3 0.5 0.7 0.2 0.5 0.2 0.9v2.3q0 0.4-0.2 0.8-0.1 0.4-0.5 0.7-0.3 0.4-0.7 0.5-0.4 0.2-0.8 0.2h-2.3q-0.4 0-0.9-0.2-0.4-0.1-0.7-0.5-0.3-0.3-0.5-0.7-0.1-0.4-0.1-0.8zm9.7-9.8q0-0.4 0.2-0.9 0.1-0.4 0.5-0.7 0.3-0.3 0.7-0.5 0.4-0.1 0.9-0.1h2.2q0.4 0 0.9 0.1 0.4 0.2 0.7 0.5 0.3 0.3 0.5 0.7 0.1 0.5 0.2 0.9v2.3q-0.1 0.4-0.2 0.8-0.2 0.4-0.5 0.7-0.3 0.4-0.7 0.5-0.5 0.2-0.9 0.2h-2.2q-0.5 0-0.9-0.2-0.4-0.1-0.7-0.5-0.4-0.3-0.5-0.7-0.2-0.4-0.2-0.8zm0 9.7q0-0.4 0.2-0.9 0.1-0.4 0.5-0.7 0.3-0.3 0.7-0.5 0.4-0.1 0.9-0.1h2.2q0.4 0 0.9 0.1 0.4 0.2 0.7 0.5 0.3 0.3 0.5 0.7 0.1 0.5 0.2 0.9v2.3q-0.1 0.4-0.2 0.8-0.2 0.4-0.5 0.7-0.3 0.4-0.7 0.5-0.5 0.2-0.9 0.2h-2.2q-0.5 0-0.9-0.2-0.4-0.1-0.7-0.5-0.4-0.3-0.5-0.7-0.2-0.4-0.2-0.8z"/>
</svg>