<svg version="1.2" xmlns="http://www.w3.org/2000/svg" viewBox="0 0 1086 966" width="1086" height="966">
	<title>v982-d4-01-ai</title>
	<defs>
		<linearGradient id="g1" x1="588.4" y1="695.9" x2="588.4" y2="695.9" gradientUnits="userSpaceOnUse">
			<stop offset="0" stop-color="#00b7f0"/>
			<stop offset="1" stop-color="#007cc1"/>
		</linearGradient>
	</defs>
	<style>
		.s0 { fill: #010201 } 
		.s1 { fill: #ffffff } 
		.s2 { fill: #fefefe } 
		.s3 { fill: #000000 } 
		.s4 { fill: url(#g1) } 
	</style>
	<g id="Graphic Elements">
		<g id="instagram">
			<path id="instagramCircle" class="s0 circle" d="m543 21.9c37.3 0 67.5 30.3 67.5 67.5 0 37.3-30.2 67.5-67.5 67.5-37.3 0-67.5-30.2-67.5-67.5 0-37.2 30.2-67.5 67.5-67.5z"/>
				<g id="instagramLogo">
					<path id="&lt;Compound Path&gt;" fill-rule="evenodd" class="s1 logo" d="m560.5 47.2c4.5 0.2 7.6 0.9 10.3 2 2.8 1.1 5.2 2.5 7.6 4.9 2.3 2.3 3.8 4.7 4.9 7.5 1 2.7 1.7 5.8 1.9 10.3 0.3 4.6 0.3 6 0.3 17.5 0 11.6 0 13-0.3 17.6-0.2 4.5-0.9 7.6-1.9 10.3-1.1 2.8-2.6 5.1-4.9 7.5-2.4 2.4-4.8 3.8-7.6 4.9-2.7 1.1-5.8 1.8-10.3 2-4.5 0.2-6 0.2-17.5 0.2-11.5 0-13 0-17.5-0.2-4.5-0.2-7.6-0.9-10.3-2-2.8-1.1-5.2-2.5-7.6-4.9-2.3-2.4-3.8-4.7-4.9-7.5-1-2.7-1.7-5.8-1.9-10.3-0.3-4.6-0.3-6-0.3-17.6 0-11.5 0-12.9 0.3-17.5 0.2-4.5 0.9-7.6 1.9-10.3 1.1-2.8 2.6-5.2 4.9-7.5 2.4-2.4 4.8-3.8 7.6-4.9 2.7-1.1 5.8-1.8 10.3-2 4.5-0.2 6-0.3 17.5-0.3 11.5 0 13 0.1 17.5 0.3zm-34.7 7.7c-4.1 0.1-6.4 0.8-7.9 1.4-1.9 0.8-3.4 1.7-4.9 3.2-1.4 1.5-2.4 2.9-3.1 4.9-0.6 1.5-1.3 3.7-1.5 7.9-0.2 4.5-0.2 5.8-0.2 17.1 0 11.4 0 12.7 0.2 17.2 0.2 4.2 0.9 6.4 1.5 7.9 0.7 2 1.7 3.4 3.1 4.9 1.5 1.5 3 2.4 4.9 3.2 1.5 0.6 3.8 1.3 7.9 1.4 4.5 0.2 5.9 0.3 17.2 0.3 11.3 0 12.7-0.1 17.2-0.3 4.1-0.1 6.4-0.8 7.9-1.4 1.9-0.8 3.4-1.7 4.9-3.2 1.4-1.5 2.4-2.9 3.1-4.9 0.6-1.5 1.3-3.7 1.5-7.9 0.2-4.5 0.2-5.8 0.2-17.2 0-11.3 0-12.6-0.2-17.1-0.2-4.2-0.9-6.4-1.5-7.9-0.7-2-1.7-3.4-3.1-4.9-1.5-1.5-3-2.4-4.9-3.2-1.5-0.6-3.8-1.3-7.9-1.4-4.5-0.3-5.9-0.3-17.2-0.3-11.3 0-12.7 0-17.2 0.3z"/>
					<path id="&lt;Compound Path&gt;" fill-rule="evenodd" class="s1 logo" d="m564.8 89.4c0 12.1-9.7 21.9-21.8 21.9-12.1 0-21.8-9.8-21.8-21.9 0-12 9.7-21.8 21.8-21.8 12.1 0 21.8 9.8 21.8 21.8zm-7.6 0c0-7.8-6.4-14.1-14.2-14.1-7.8 0-14.2 6.3-14.2 14.1 0 7.9 6.4 14.2 14.2 14.2 7.8 0 14.2-6.3 14.2-14.2z"/>
					<path id="&lt;Path&gt;" class="s1" d="m570.8 66.8c0 2.8-2.3 5.1-5.1 5.1-2.8 0-5.1-2.3-5.1-5.1 0-2.9 2.3-5.1 5.1-5.1 2.8 0 5.1 2.2 5.1 5.1z"/>
				</g>		
		</g>
		<g id="&lt;Group&gt;">
			<path id="&lt;Path&gt;" class="s0" d="m386.3 89.4c0 37.3-30.2 67.5-67.5 67.5-37.2 0-67.5-30.2-67.5-67.5 0-37.2 30.3-67.5 67.5-67.5 37.3 0 67.5 30.3 67.5 67.5z"/>
			<g id="&lt;Group&gt;">
				<g id="logo 5 ">
					<path id="bubble 5 " class="s1" d="m318.8 39.4c-28.7 0-51 21.1-51 49.5 0 14.9 6.1 27.7 16.1 36.6 0.8 0.8 1.3 1.8 1.3 2.9l0.3 9.1c0.1 2.9 3.1 4.8 5.7 3.6l10.1-4.5c0.9-0.4 1.9-0.4 2.8-0.2 4.6 1.3 9.6 2 14.7 2 28.8 0 51-21.1 51-49.5 0-28.4-22.2-49.5-51-49.5z"/>
					<path id="bolt 5 " class="s0" d="m288.2 103.4l15-23.8c2.4-3.8 7.5-4.7 11.1-2l11.9 8.9c1.1 0.8 2.6 0.8 3.7 0l16-12.2c2.2-1.6 5 0.9 3.6 3.2l-15 23.8c-2.4 3.8-7.5 4.7-11.1 2l-11.9-8.9c-1.1-0.8-2.6-0.8-3.7 0l-16.1 12.2c-2.1 1.6-4.9-0.9-3.5-3.2z"/>
				</g>
			</g>
		</g>
		<g id="whatsapp">
			<path id="whatsappCirlce" class="s0 circle" d="m834.7 89.4c0 37.3-30.3 67.5-67.5 67.5-37.3 0-67.5-30.2-67.5-67.5 0-37.2 30.2-67.5 67.5-67.5 37.2 0 67.5 30.3 67.5 67.5z"/>
			    <g id="whatsappLogo">
					<path id="&lt;Compound Path&gt;" fill-rule="evenodd" class="s1 logo" d="m812.2 88.1c0 23.6-19.3 42.8-42.9 42.8q0 0 0 0c-7.1 0-14.2-1.8-20.4-5.2l-22.7 5.9 6-22.1c-3.7-6.5-5.7-13.9-5.7-21.4 0-23.6 19.2-42.8 42.8-42.8 11.5 0 22.3 4.4 30.3 12.5 8.1 8.1 12.6 18.9 12.6 30.3zm-7.3 0c0-9.5-3.7-18.5-10.4-25.2-6.7-6.7-15.6-10.4-25.1-10.4-19.7 0-35.6 15.9-35.6 35.6 0 6.7 1.8 13.2 5.4 18.9l0.8 1.3-3.6 13.2 13.5-3.6 1.3 0.8c5.5 3.2 11.7 5 18.1 5 19.7 0 35.6-16 35.6-35.6zm-14 10.2c0.3 0.4 0.3 2.6-0.6 5.1-0.9 2.5-5.2 4.7-7.2 5-1.9 0.3-4.2 0.4-6.8-0.4-1.5-0.5-3.5-1.1-6.1-2.2-10.7-4.7-17.7-15.5-18.2-16.2-0.6-0.7-4.4-5.8-4.4-11.1 0-5.2 2.8-7.8 3.7-8.9 1-1 2.2-1.3 2.9-1.3 0.7 0 1.4 0 2 0 0.7 0.1 1.6-0.2 2.4 1.9 0.9 2.1 3.1 7.4 3.3 7.9 0.3 0.5 0.5 1.2 0.1 1.9-0.3 0.7-0.5 1.1-1 1.8-0.6 0.6-1.2 1.4-1.6 1.8-0.6 0.6-1.1 1.1-0.5 2.2 0.6 1.1 2.8 4.6 5.9 7.4 4.1 3.7 7.6 4.8 8.6 5.3 1.1 0.6 1.7 0.5 2.4-0.2 0.6-0.7 2.6-3.2 3.3-4.2 0.8-1.1 1.5-0.9 2.5-0.6 0.9 0.4 6.2 3 7.3 3.5 1 0.6 1.8 0.8 2 1.3z"/>
				</g>
				
		</g>
		<g id="&lt;Group&gt;">
			<path id="&lt;Path&gt;" class="s0" d="m1058.8 89.4c0 37.3-30.2 67.5-67.5 67.5-37.2 0-67.5-30.2-67.5-67.5 0-37.2 30.3-67.5 67.5-67.5 37.3 0 67.5 30.3 67.5 67.5z"/>
			<g id="&lt;Group&gt;">
				<g id="&lt;Group&gt;">
					<path id="&lt;Path&gt;" class="s1" d="m977.7 128.3c33 0 51-27.3 51-51q0-1.1-0.1-2.3c3.5-2.5 6.6-5.7 9-9.3-3.2 1.5-6.7 2.4-10.3 2.8 3.7-2.2 6.5-5.7 7.9-9.9-3.5 2.1-7.3 3.6-11.4 4.4-3.3-3.5-7.9-5.7-13.1-5.7-9.9 0-17.9 8-17.9 17.9q0 2.2 0.4 4.1c-14.9-0.7-28.1-7.9-36.9-18.7-1.5 2.7-2.4 5.7-2.4 9 0 6.2 3.1 11.7 7.9 14.9-2.9-0.1-5.7-0.9-8.1-2.2q0 0.1 0 0.2c0 8.7 6.2 15.9 14.4 17.6q-2.3 0.6-4.7 0.6-1.8 0-3.4-0.3c2.3 7.1 8.9 12.3 16.8 12.4-6.2 4.9-13.9 7.7-22.3 7.7q-2.2 0-4.3-0.2c7.9 5.1 17.4 8 27.5 8z"/>
				</g>
			</g>
		</g>
		<g id="&lt;Group&gt;">
			<path id="&lt;Path&gt;" class="s0" d="m834.7 482.6c0 37.2-30.3 67.5-67.5 67.5-37.3 0-67.5-30.3-67.5-67.5 0-37.3 30.2-67.5 67.5-67.5 37.2 0 67.5 30.2 67.5 67.5z"/>
			<g id="&lt;Group&gt;">
				<g id="&lt;Group&gt;">
					<path id="&lt;Path&gt;" class="s1" d="m787.4 525.1h-14.2c-12.8 0-22.4-6.6-22.4-22.3v-25.3h-11.6v-13.6c12.8-3.4 18.2-14.4 18.8-23.9h13.3v21.6h15.5v15.9h-15.5v22c0 6.6 3.3 8.9 8.6 8.9h7.5z"/>
				</g>
			</g>
		</g>
		<g id="&lt;Group&gt;">
			<g id="&lt;Group&gt;">
				<path id="&lt;Path&gt;" class="s0" d="m94.7 218.9c-37.3 0-67.5 30.2-67.5 67.5 0 28.6 17.8 53.1 42.9 62.9-0.6-5.3-1.1-13.5 0.2-19.4 1.2-5.2 7.9-33.5 7.9-33.5 0 0-2-4.1-2-10 0-9.4 5.5-16.4 12.2-16.4 5.8 0 8.6 4.3 8.6 9.5 0 5.7-3.7 14.4-5.6 22.5-1.6 6.7 3.4 12.2 10 12.2 12 0 21.2-12.7 21.2-30.9 0-16.2-11.6-27.5-28.2-27.5-19.2 0-30.5 14.4-30.5 29.3 0 5.8 2.2 12 5 15.4 0.5 0.7 0.6 1.3 0.4 2-0.5 2.1-1.7 6.7-1.9 7.7-0.3 1.2-1 1.5-2.3 0.8-8.4-3.9-13.7-16.2-13.7-26.1 0-21.3 15.5-40.9 44.7-40.9 23.4 0 41.6 16.7 41.6 39 0 23.3-14.7 42.1-35 42.1-6.9 0-13.3-3.6-15.5-7.8 0 0-3.4 12.9-4.2 16-1.5 5.9-5.6 13.3-8.4 17.8 6.3 1.9 13 3 20 3 37.3 0 67.6-30.3 67.6-67.6 0.1-37.4-30.2-67.6-67.5-67.6z"/>
			</g>
		</g>
		<g id="&lt;Group&gt;">
			<path id="&lt;Path&gt;" class="s0" d="m610.5 286.5c0 37.2-30.2 67.5-67.5 67.5-37.3 0-67.5-30.3-67.5-67.5 0-37.3 30.2-67.5 67.5-67.5 37.3 0 67.5 30.2 67.5 67.5z"/>
			<path id="&lt;Compound Path&gt;" fill-rule="evenodd" class="s1" d="m588 286.5c0 0 0 14.6-1.9 21.6-1 3.9-4.1 6.9-7.9 8-7.1 1.9-35.2 1.9-35.2 1.9 0 0-28.1 0-35.2-1.9-3.8-1.1-6.9-4.1-7.9-8-1.9-7-1.9-21.6-1.9-21.6 0 0 0-14.7 1.9-21.7 1-3.9 4.1-6.9 7.9-8 7.1-1.8 35.2-1.8 35.2-1.8 0 0 28.1 0 35.2 1.8 3.8 1.1 6.9 4.1 7.9 8 1.9 7 1.9 21.7 1.9 21.7zm-30.6 0l-23.4-13.5v27z"/>
		</g>
		<g id="&lt;Group&gt;">
			<path id="&lt;Path&gt;" class="s0" d="m1058.8 286.5c0 37.2-30.2 67.5-67.5 67.5-37.2 0-67.5-30.3-67.5-67.5 0-37.3 30.3-67.5 67.5-67.5 37.3 0 67.5 30.2 67.5 67.5z"/>
			<g id="&lt;Group&gt;">
				<path id="&lt;Path&gt;" class="s1" d="m975.2 277.4c18-6.2 21-22.3 18.7-37.1 0-0.6 0.5-1 0.9-0.8 17.2 8.4 36.5 26.7 36.5 54.2 0 21.1-16.3 39.7-40.1 39.7-21 1-38.9-15.3-39.8-36.4-0.7-13.9 6.4-27.1 18.3-34.4 0.5-0.3 1.1 0 1.1 0.6 0.2 2.8 1 9.9 4.1 14.2z"/>
			</g>
		</g>
		<g id="&lt;Group&gt;">
			<path id="&lt;Path&gt;" class="s0" d="m834.7 286.5c0 37.2-30.3 67.5-67.5 67.5-37.3 0-67.5-30.3-67.5-67.5 0-37.3 30.2-67.5 67.5-67.5 37.2 0 67.5 30.2 67.5 67.5z"/>
			<g id="&lt;Group&gt;">
				<g id="&lt;Group&gt;">
					<path id="&lt;Path&gt;" class="s2" d="m772.4 277.3c1.1-1.3 2-2.6 3.1-3.6 3.5-3.3 7.7-5 12.5-5 2.7 0.1 5.3 0.3 7.9 1 5.8 1.7 9.2 5.7 10.9 11.5 1.2 4.2 1.4 8.7 1.4 13.1 0 9.3 0 18.6 0 27.9 0 0.9-0.2 1.1-1.1 1.1q-7.2 0-14.4 0c-0.9 0.1-1-0.2-1-1q0-13.3 0-26.6c0-2.3-0.2-4.5-0.8-6.6-1.2-4-4-6-8.2-5.8-5.7 0.3-8.6 3.1-9.4 8.9q-0.2 2.1-0.2 4.1c0 8.7 0 17.3 0 25.9 0 0.9-0.2 1.2-1.1 1.1q-7.2 0-14.5 0c-0.8 0-1-0.2-1-0.9q0-25.7 0-51.3c0-0.8 0.3-1 1.1-1q6.9 0 13.8 0c0.8 0 1 0.2 1 1 0 2.1 0 4.1 0 6.2z"/>
					<path id="&lt;Path&gt;" class="s2" d="m746.1 296.8q0 12.7 0 25.3c0 1-0.2 1.3-1.2 1.2q-7.2 0-14.4 0c-0.8 0-1-0.1-1-0.9q0-25.7 0-51.4c0-0.7 0.2-0.9 0.9-0.9q7.3 0 14.6 0c1 0 1.1 0.3 1.1 1.1q0 12.8 0 25.6z"/>
					<path id="&lt;Path&gt;" class="s2" d="m747.4 253.1c0 5.3-4.3 9.6-9.6 9.6-5.2 0-9.6-4.3-9.6-9.5 0-5.3 4.3-9.6 9.6-9.6 5.3 0 9.6 4.3 9.6 9.5z"/>
				</g>
			</g>
		</g>
		<g id="&lt;Group&gt;">
			<path id="&lt;Path&gt;" class="s0" d="m162.2 875.7c0 37.2-30.3 67.5-67.5 67.5-37.3 0-67.5-30.3-67.5-67.5 0-37.3 30.2-67.5 67.5-67.5 37.2 0 67.5 30.2 67.5 67.5z"/>
			<g id="&lt;Group&gt;">
				<path id="&lt;Path&gt;" class="s1" d="m47.6 875.8c0-11.6 9.4-21 21-21 11.6 0 21 9.4 21 21 0 11.6-9.4 21-21 21-11.6 0-21-9.4-21-21z"/>
				<path id="&lt;Path&gt;" class="s1" d="m99.8 875.8c0-11.6 9.4-21 21-21 11.6 0 21 9.4 21 21 0 11.6-9.4 21-21 21-11.6 0-21-9.4-21-21z"/>
			</g>
		</g>
		<g id="&lt;Group&gt;">
			<path id="&lt;Path&gt;" class="s0" d="m610.5 482.6c0 37.2-30.2 67.5-67.5 67.5-37.3 0-67.5-30.3-67.5-67.5 0-37.3 30.2-67.5 67.5-67.5 37.3 0 67.5 30.2 67.5 67.5z"/>
			<g id="&lt;Group&gt;">
				<g id="&lt;Group&gt;">
					<path id="&lt;Path&gt;" class="s1" d="m566.2 466.6q0 2.8-0.2 5.6 0 0.5 0 0.9c0 0.7 0.3 1 1 0.9q0.4 0 0.8-0.1 1-0.4 2-0.8c1.1-0.4 2.2-0.8 3.4-1.1 0.8-0.2 1.6-0.3 2.4-0.1 1.8 0.4 2.7 2.2 2 4q-0.3 0.6-0.8 1.2-0.7 0.8-1.5 1.3-1.1 0.7-2.1 1.4-1.7 1.1-3.4 2.3-0.7 0.4-1.4 1-0.4 0.3-0.7 0.6-0.6 0.7-0.6 1.7 0.1 0.9 0.3 1.8c0.6 1.9 1.4 3.7 2.4 5.3 1.9 3.1 4.3 5.8 7.1 8.1 2.4 1.9 5 3.5 7.7 4.9q0.4 0.1 0.7 0.3 0.3 0.2 0.5 0.5 0.3 0.4 0 0.8-0.2 0.4-0.5 0.6-0.5 0.4-1 0.7c-1.6 0.8-3.2 1.4-4.9 1.9q-1.1 0.3-2.2 0.6-0.8 0.2-1.5 0.6c-0.8 0.4-1.2 1.1-1.4 1.9-0.1 0.5-0.1 1-0.2 1.5-0.2 1.2-0.7 1.6-1.8 1.8q-0.7 0.1-1.3 0.1-1.6 0.1-3.2 0.2c-2.3 0.1-4.7 0.5-7 1.2q-1.4 0.5-2.7 1.3-1.4 0.8-2.8 1.6c-1.5 0.9-2.9 1.7-4.5 2.4q-2.7 1-5.6 1.2-2.4 0.2-4.8 0-3.5-0.4-6.7-2.1-1.5-0.8-3-1.6-1-0.7-2.1-1.3c-1.6-1-3.5-1.7-5.4-2.1q-2.6-0.5-5.2-0.6-1.4-0.1-2.8-0.2-0.8 0-1.6-0.2c-0.7-0.2-1.2-0.6-1.3-1.4q-0.1-0.6-0.2-1.2 0-0.1 0-0.3c-0.2-1.1-0.7-1.9-1.8-2.3q-0.9-0.5-1.9-0.7c-1.2-0.4-2.4-0.6-3.5-1.1q-1.5-0.5-2.9-1.2-0.4-0.3-0.8-0.5-0.2-0.2-0.5-0.4-0.8-0.9 0.2-1.6c0.3-0.2 0.6-0.4 0.9-0.5q3.7-1.8 6.9-4.2c3-2.4 5.6-5.1 7.6-8.4 1.1-1.7 2-3.6 2.5-5.6q0.3-0.9 0.4-1.9 0-0.9-0.7-1.6-0.4-0.5-0.8-0.8-1.3-1-2.7-1.9-1.8-1.1-3.5-2.2-0.9-0.6-1.7-1.3-0.5-0.5-0.9-1.2-0.8-1.4-0.2-2.8 0.4-1 1.5-1.4c0.7-0.3 1.5-0.4 2.3-0.2 0.9 0.1 1.8 0.4 2.6 0.7q1.4 0.5 2.7 1c0.4 0.2 0.8 0.3 1.3 0.4q0.1 0 0.3 0.1c0.5-0.1 0.9-0.2 0.9-0.9q0-0.9-0.1-1.7c-0.2-3.1-0.3-6.2-0.1-9.2 0.1-2 0.3-4 0.7-5.9q0.9-4 3.4-7.3c3-4 7.1-6.5 11.9-7.9 2.6-0.7 5.3-1 8.1-0.9 2.8 0.1 5.6 0.6 8.3 1.7 2.6 1 4.9 2.3 6.9 4.2 2.6 2.4 4.5 5.1 5.6 8.5q0.7 2.2 1 4.6c0.3 2.4 0.3 4.9 0.2 7.3z"/>
				</g>
			</g>
		</g>
		<g id="&lt;Group&gt;">
			<path id="&lt;Path&gt;" class="s0" d="m162.2 678.6c0 37.3-30.3 67.5-67.5 67.5-37.3 0-67.5-30.2-67.5-67.5 0-37.2 30.2-67.5 67.5-67.5 37.2 0 67.5 30.3 67.5 67.5z"/>
			<g id="&lt;Group&gt;">
				<g id="&lt;Group&gt;">
					<path id="&lt;Compound Path&gt;" fill-rule="evenodd" class="s1" d="m143.2 688.7q0 1.8 0 3.6c-0.3 1.3-0.5 2.7-0.8 4-1.4 5.1-4.4 9.1-8.4 12.4-0.6 0.4-1.2 0.9-1.8 1.3-0.4 0.3-0.5 0.6-0.3 1.1q1.2 3.6 2.4 7.2c0 0.2 0 0.3 0.1 0.6-0.9-0.5-1.7-0.9-2.6-1.3-2.1-1.2-4.3-2.3-6.5-3.4-0.3-0.2-0.9-0.2-1.3-0.1-4.4 1.1-8.9 1.9-13.5 1.4-9.6-1-17.8-4.9-23.2-13.2-5.4-8.5-4.5-19 2.2-26.6 4.9-5.5 11.1-8.7 18.4-9.9 8-1.3 15.7 0 22.7 4.2 5.4 3.2 9.4 7.6 11.4 13.6 0.5 1.5 0.7 3.1 1 4.6q0.1 0.2 0.2 0.5zm-34.7-6.3c0-2.2-1.8-4-4-4-2.2 0-4 1.8-4 4 0 2.2 1.8 4 4 4 2.2 0 4-1.8 4-4zm19.4 0c0-2.2-1.8-4-4-4-2.2 0-4 1.8-4 4 0 2.2 1.8 4 4 4 2.2 0 4-1.8 4-4z"/>
					<path id="&lt;Compound Path&gt;" fill-rule="evenodd" class="s1" d="m82.9 697.4c0.1 0.3 0.2 0.6 0.3 1.1-0.6 0-1.2 0-1.8 0-4.1-0.1-8.1-0.7-12-1.9-0.7-0.2-1.2-0.1-1.7 0.2q-5 2.7-9.9 5.3c-0.3 0.1-0.6 0.3-1.2 0.6 1.2-3.6 2.3-6.9 3.4-10.2-1.7-1.5-3.5-2.9-5.1-4.4-4.5-4.4-7.5-9.6-8.4-15.8-1-6.5 0.4-12.4 3.8-17.9 4.6-7.2 11.3-11.8 19.4-14.2 10.3-3.1 20.4-2.4 30 2.5 7.9 4 13.6 10 16.3 18.6 0.2 0.6 0.3 1.3 0.5 1.9q0 0.1 0 0.3-0.8 0-1.5 0c-7.9-0.2-15.3 1.6-21.8 6.3-5.4 3.9-9.2 8.9-10.7 15.5-0.9 4.1-0.7 8.1 0.4 12.1zm5.8-39.5c0 2.8 2.3 5 5 5 2.8 0 5-2.2 5-5 0-2.8-2.2-5-5-5-2.7 0-5 2.2-5 5zm-14.3 0c0-2.8-2.2-5-5-5-2.7 0-5 2.2-5 5 0 2.8 2.3 5 5 5 2.8 0 5-2.2 5-5z"/>
				</g>
			</g>
		</g>
		<g id="&lt;Group&gt;">
			<g id="&lt;Group&gt;">
				<path id="&lt;Path&gt;" class="s0" d="m834.7 678.6c0 37.3-30.3 67.5-67.5 67.5-37.3 0-67.5-30.2-67.5-67.5 0-37.2 30.2-67.5 67.5-67.5 37.2 0 67.5 30.3 67.5 67.5z"/>
				<path id="&lt;Compound Path&gt;" fill-rule="evenodd" class="s1" d="m806.3 687.6q0.2 1.5 0.2 3c0 15.1-17.6 27.4-39.3 27.4-21.8 0-39.4-12.3-39.4-27.4q0-1.5 0.2-3c-3.4-1.5-5.8-5-5.8-9 0-5.4 4.4-9.8 9.8-9.8 2.7 0 5.1 1 6.8 2.7 6.9-4.9 16.3-8 26.8-8.3l5-23.5c0.1-0.5 0.3-0.9 0.7-1.2 0.4-0.2 0.9-0.3 1.4-0.2l16.3 3.5c1.2-2.3 3.5-3.9 6.3-3.9 3.9 0 7 3.1 7 7 0 3.9-3.1 7-7 7-3.8 0-6.8-3-7-6.7l-14.7-3.1-4.4 21.1c10.3 0.4 19.6 3.5 26.3 8.4 1.8-1.8 4.2-2.8 6.8-2.8 5.4 0 9.9 4.4 9.9 9.8 0 4.1-2.5 7.5-5.9 9zm-54.6 5.1c3.9 0 7-3.2 7-7 0-3.9-3.1-7.1-7-7.1-3.9 0-7 3.2-7 7.1 0 3.8 3.1 7 7 7zm32.2 9c-0.7-0.7-1.9-0.7-2.6 0-3 3-9.5 4.1-14.1 4.1-4.6 0-11.1-1.1-14.1-4.1-0.8-0.7-1.9-0.7-2.6 0-0.7 0.7-0.7 1.8 0 2.5 4.8 4.8 14 5.2 16.7 5.2 2.7 0 11.9-0.4 16.7-5.2 0.7-0.7 0.7-1.8 0-2.5zm5.8-16c0-3.9-3.2-7.1-7.1-7.1-3.8 0-7 3.2-7 7.1 0 3.8 3.2 7 7 7 3.9 0 7.1-3.2 7.1-7z"/>
			</g>
		</g>
		<g id="&lt;Group&gt;">
			<path id="&lt;Path&gt;" class="s0" d="m1058.8 678.6c0 37.3-30.2 67.5-67.5 67.5-37.2 0-67.5-30.2-67.5-67.5 0-37.2 30.3-67.5 67.5-67.5 37.3 0 67.5 30.3 67.5 67.5z"/>
			<g id="&lt;Group&gt;">
				<g id="&lt;Group&gt;">
					<path id="&lt;Compound Path&gt;" fill-rule="evenodd" class="s1" d="m1041.3 678.6c0 27.6-22.4 50-50 50-27.6 0-50-22.4-50-50 0-27.6 22.4-50 50-50 27.6 0 50 22.4 50 50zm-40.8-10.1c1 2 2 4.1 2.9 6.2 0.3 0.7 0.6 1.5 0.9 2.2 14.2-1.8 28.3 1.1 29.7 1.4-0.1-10.1-3.7-19.3-9.6-26.6-1 1.2-8.1 10.4-23.9 16.8zm-19.2-31.3c1.2 1.6 8.9 12.1 15.9 25 15.2-5.7 21.7-14.4 22.4-15.5-7.5-6.6-17.4-10.7-28.3-10.7q-5.2 0-10 1.2zm-31.8 32.7c1.9 0 19.5 0.1 39.5-5.2-7.1-12.6-14.7-23.2-15.8-24.7-12 5.7-20.9 16.7-23.7 29.9zm10.1 37.3c0.9-1.6 12.6-21 34.7-28.1 0.5-0.2 1.1-0.4 1.6-0.5-1-2.5-2.2-4.9-3.4-7.3-21.3 6.4-42.1 6.1-43.9 6.1q0 0.6 0 1.3c0 10.9 4.2 21 11 28.5zm48.4 10.8c-0.6-3.8-3.1-16.9-9.1-32.4-0.1 0-0.1 0-0.2 0.1-24.1 8.4-32.8 25.1-33.6 26.7 7.2 5.6 16.4 9 26.2 9 5.9 0 11.6-1.2 16.7-3.4zm25.4-32.5c-1.5-0.5-13.2-4-26.6-1.9 5.6 15.4 7.9 27.8 8.3 30.4 9.6-6.4 16.5-16.7 18.3-28.5z"/>
				</g>
			</g>
		</g>
		<g id="&lt;Group&gt;">
			<path id="&lt;Path&gt;" class="s3" d="m834.7 875.7c0 37.2-30.3 67.5-67.5 67.5-37.3 0-67.5-30.3-67.5-67.5 0-37.3 30.2-67.5 67.5-67.5 37.2 0 67.5 30.2 67.5 67.5z"/>
			<g id="&lt;Group&gt;">
				<g id="&lt;Group&gt;">
					<g id="&lt;Group&gt;">
						<path id="&lt;Compound Path&gt;" fill-rule="evenodd" class="s1" d="m748.8 846.8q4.1 0 7.4 0.7 3.4 0.8 5.7 2.4 2.4 1.6 3.7 4.3 1.3 2.7 1.3 6.6 0 4.3-1.9 7.2-2 2.8-5.8 4.6 5.2 1.5 7.8 5.3 2.6 3.8 2.6 9.1 0 4.3-1.7 7.4-1.7 3.2-4.5 5.1-2.8 2-6.4 3-3.6 0.9-7.4 0.9h-27.4v-56.6zm-1.6 22.9q3.3 0 5.4-1.6 2.2-1.6 2.2-5.1 0-2-0.7-3.3-0.7-1.3-2-2-1.1-0.7-2.7-1-1.5-0.2-3.2-0.2h-11.7v13.2zm0.7 24.1q1.9 0 3.5-0.4 1.7-0.3 3-1.2 1.2-0.8 2-2.2 0.7-1.5 0.7-3.7 0-4.4-2.4-6.2-2.5-1.9-6.5-1.9h-13.6v15.6z"/>
						<path id="&lt;Compound Path&gt;" fill-rule="evenodd" class="s1" d="m787.3 893.6q2.5 2.5 7.3 2.5 3.4 0 5.9-1.8 2.4-1.7 3-3.6h9.9q-2.4 7.4-7.3 10.6-4.9 3.2-11.9 3.2-4.8 0-8.7-1.6c-2.6-1-4.8-2.5-6.6-4.4q-2.7-2.8-4.2-6.8-1.5-4-1.5-8.7 0-4.6 1.5-8.6 1.6-4 4.3-6.9 2.8-2.9 6.7-4.5 3.8-1.7 8.5-1.7 5.2 0 9.1 2 3.9 2 6.4 5.4 2.5 3.4 3.6 7.8 1.1 4.4 0.8 9.1h-29.6c0 3.3 1.1 6.3 2.8 8zm12.9-21.5c-1.3-1.5-3.6-2.3-6.3-2.3q-2.7 0-4.5 0.9-1.8 0.9-2.9 2.3-1 1.3-1.5 2.8-0.4 1.5-0.5 2.7h18.3c-0.2-2.8-1.2-4.9-2.6-6.4z"/>
						<path id="&lt;Path&gt;" class="s1" d="m782.2 850.6v5.6h23v-5.6z"/>
					</g>
				</g>
			</g>
		</g>
		<g id="&lt;Group&gt;">
			<path id="&lt;Path&gt;" class="s0" d="m386.3 482.6c0 37.2-30.2 67.5-67.5 67.5-37.2 0-67.5-30.3-67.5-67.5 0-37.3 30.3-67.5 67.5-67.5 37.3 0 67.5 30.2 67.5 67.5z"/>
			<g id="&lt;Group&gt;">
				<g id="&lt;Group&gt;">
					<g id="&lt;Group&gt;">
						<path id="&lt;Compound Path&gt;" class="s1" d="m362.4 461.4q-0.6 13.3-18.5 36.4-18.6 24.1-31.4 24.1-8 0-13.5-14.7-3.6-13.5-7.3-26.9-4.1-14.7-8.8-14.7-1 0-7.1 4.3l-4.3-5.5q6.7-5.9 13.3-11.9 9-7.7 13.5-8.1 10.6-1.1 13 14.5 2.7 16.7 3.7 20.8 3.1 13.9 6.8 13.9 2.8 0 8.5-9 5.7-9 6.2-13.7 0.8-7.8-6.2-7.8-3.2 0-6.7 1.5 6.7-22 25.6-21.4 14.1 0.4 13.2 18.2z"/>
					</g>
				</g>
			</g>
		</g>
		<g id="&lt;Group&gt;">
			<path id="&lt;Path&gt;" class="s0" d="m610.5 875.7c0 37.2-30.2 67.5-67.5 67.5-37.3 0-67.5-30.3-67.5-67.5 0-37.3 30.2-67.5 67.5-67.5 37.3 0 67.5 30.2 67.5 67.5z"/>
			<g id="&lt;Group&gt;">
				<path id="&lt;Compound Path&gt;" class="s1" d="m488.2 875.6l-0.7 6.2 0.7 6.1c0 0.3 0.3 0.3 0.3 0.3 0.4 0 0.4-0.3 0.4-0.3l1-6.1-1-6.2c0-0.3-0.4-0.3-0.4-0.3 0 0-0.3 0-0.3 0.3zm4.1-3.7l-1 9.9 1 9.9c0 0.3 0.3 0.3 0.3 0.3 0.4 0 0.4-0.3 0.4-0.3l1.3-9.9-1.3-9.9c0-0.4-0.4-0.4-0.4-0.4zm13-1.4l-0.7 11.3 0.7 12c0 0.3 0.3 0.7 0.7 0.7 0.3 0 0.7-0.4 0.7-0.7l1.3-12-1-11.3c0-0.3-0.3-0.6-0.7-0.6-0.7 0-1 0.3-1 0.6zm-8.5-0.6l-1.1 11.9 1.1 11.3c0 0.3 0.3 0.7 0.6 0.7 0 0 0.4-0.4 0.4-0.7l1-11.3-1-11.9c0-0.4-0.4-0.7-0.7-0.7 0 0.3-0.3 0.3-0.3 0.7zm4.1-0.4l-1.1 12.3 1.1 11.6c0 0.4 0.3 0.7 0.6 0.7 0.4 0 0.7-0.3 0.7-0.7l1.1-11.6-1.1-12.3c0-0.3-0.3-0.7-0.7-0.7-0.3 0-0.3 0.4-0.6 0.7zm8.8-6.1l-1 18.4 1 12c0 0.3 0.4 0.7 0.7 0.7 0.7 0 1-0.4 1-0.7l1.1-12-1.1-18.4c0-0.4-0.3-0.7-0.6-0.7-0.7 0-1.1 0.3-1.1 0.7zm4.5-4.1l-0.7 22.5 0.7 12q0 1 1 1c0.3 0 1-0.3 1-1l1.1-12-1.1-22.5q0-1.1-1-1.1-1 0-1 1.1zm18.1-1.1l-0.7 23.6 0.7 11.3c0 0.7 0.7 1.4 1.3 1.4 0.7 0 1.4-0.7 1.4-1.4l0.7-11.3-0.7-23.9c0-0.7-0.7-1.4-1.4-1.4-1 0.4-1.3 0.7-1.3 1.7zm-13.7-1l-0.7 24.6 0.7 11.6q0 1.1 1 1.1 1.1 0 1.1-1.1l0.7-11.6-0.7-24.6q0-1-1.1-1c-0.6 0-1 0.7-1 1zm8.9 0l-0.7 24.6 0.7 11.6c0 0.7 0.7 1.4 1.4 1.4 0.7 0 1.3-0.7 1.3-1.4l0.7-11.6-0.7-24.6c0-0.7-0.6-1.3-1.3-1.3-0.7 0-1.4 0.6-1.4 1.3zm-4.4-0.7l-0.7 25.3 0.7 11.6q0 1.1 1 1.1 1 0 1-1.1l0.7-11.6-0.7-25.3c0-0.6-0.7-1-1-1-0.4 0-1 0.4-1 1zm13.6-3l-0.7 28.3 0.7 11.3c0 0.7 0.7 1.4 1.4 1.4 0.7 0 1.4-0.7 1.4-1.4l0.6-11.3-0.6-28.3c0-0.7-0.7-1.4-1.4-1.4-0.7 0-1.4 0.7-1.4 1.4zm4.8-2.4l-0.7 30.7 0.7 11.3c0 0.7 0.7 1.4 1.4 1.4 0.7 0 1.3-0.7 1.3-1.4l0.7-11.3-0.7-30.7c0-0.7-0.6-1.4-1.3-1.4h-0.4c-0.7 0-1 0.7-1 1.4zm5.5-3.1c-1.1 0.3-1.4 0.7-1.4 1.7v43.4c0 0.7 0.7 1.4 1.4 1.7h37.9c7.5 0 13.6-6.2 13.6-13.7 0-7.5-6.1-13.6-13.6-13.6-1.7 0-3.8 0.3-5.1 1-1.1-12.3-11.3-21.9-24-21.9-0.6 0-1 0-1.7 0-2.3 0-4.7 0.7-7.1 1.4z"/>
			</g>
		</g>
		<g id="&lt;Group&gt;">
			<path id="&lt;Path&gt;" class="s0" d="m1058.8 875.7c0 37.2-30.2 67.5-67.5 67.5-37.2 0-67.5-30.3-67.5-67.5 0-37.3 30.3-67.5 67.5-67.5 37.3 0 67.5 30.2 67.5 67.5z"/>
			<g id="&lt;Group&gt;">
				<g id="&lt;Group&gt;">
					<path id="&lt;Path&gt;" class="s1" d="m992 910.1c-2.9 0-5.7-0.1-8.6-0.5-0.4-0.1-0.7 0-1.1 0.3-5.6 3.9-11.2 7.9-17 11.5-0.7 0.5-1.5 0.9-2.2 1.3q-0.4 0.2-0.8 0.3c-1 0.1-1.5-0.4-1.3-1.4 0.3-1.6 0.8-3.2 1.3-4.7q1.7-6.1 3.4-12.1c0.1-0.3 0.1-0.5-0.3-0.7-5.4-2.8-10.3-6.4-14.2-11.1-3.9-4.7-6.5-10-7.5-16-1-6.9 0.2-13.4 3.5-19.6 3.3-6 8-10.6 13.7-14.3 6-4 12.7-6.4 19.8-7.7q7.9-1.4 16-0.7c10 0.9 19.3 4 27.5 10.1 5.5 4 9.8 8.9 12.5 15.2 4.2 10 3.4 19.7-2.3 29-3.6 5.9-8.7 10.4-14.7 13.8-5.7 3.3-11.9 5.4-18.4 6.5q-4.6 0.8-9.3 0.8z"/>
					<path id="&lt;Path&gt;" class="s0" d="m1014.2 869.7c0.2-0.2 0.2-0.3 0.4-0.4q3.5-3.6 7.1-7.1c0.8-0.9 1.9-1.1 3-0.4 1.1 0.6 1.6 1.9 1.3 3-0.1 0.4-0.4 0.7-0.7 1q-2.9 2.9-5.8 5.8c-0.3 0.3-0.3 0.4-0.1 0.7q3.3 4.3 6.5 8.6c0.9 1.2 0.8 2.8-0.3 3.8-1.2 1.1-3.1 0.9-4.1-0.4q-2.9-3.8-5.7-7.6-0.1-0.1-0.2-0.2c-0.2-0.3-0.3-0.7-0.6-0.7-0.3 0-0.9 1-0.9 1.3q0 2.8 0 5.7c0 1.3-1 2.4-2.3 2.6-1.2 0.3-2.5-0.4-3-1.6q-0.2-0.5-0.2-1.1 0-9.5 0-18.9c0-1.6 1.2-2.8 2.7-2.8 1.5 0 2.8 1.2 2.8 2.8q0 2.7 0 5.4 0 0.2 0 0.4 0.1 0 0.1 0.1z"/>
					<path id="&lt;Path&gt;" class="s0" d="m962 874.8q0-3.9 0-7.9c0-0.4 0-0.5-0.5-0.5-1.2 0-2.4 0-3.7 0-1.6 0-2.8-1.1-2.8-2.7 0-1.5 1.2-2.7 2.8-2.7q7 0 14 0c1.5 0 2.6 1 2.8 2.4 0.1 1.4-0.7 2.6-2 2.9-0.3 0.1-0.6 0.1-0.9 0.1q-1.8 0-3.6 0c-0.4 0-0.5 0.1-0.5 0.5q0 7.8 0 15.7c0 1.4-0.7 2.4-1.9 2.8-1.9 0.6-3.7-0.7-3.7-2.7q0-3.9 0-7.9z"/>
					<path id="&lt;Path&gt;" class="s0" d="m993.3 873.1q0-4.6 0-9.3c0-1.5 1-2.6 2.5-2.8 1.4-0.2 2.7 0.8 3.1 2.1 0 0.3 0 0.7 0 1q0 7.7 0 15.4c0 0.5 0.1 0.6 0.6 0.6q2.7-0.1 5.4-0.1c1.4 0.1 2.5 1.1 2.6 2.4 0 1.4-1.1 2.7-2.4 2.7q-4.7 0-9.4 0c-1.3 0-2.4-1.2-2.4-2.6q0-4.7 0-9.4z"/>
					<path id="&lt;Compound Path&gt;" fill-rule="evenodd" class="s0" d="m991.8 883.5c0 0.8-0.4 1.4-1.2 1.7-0.5 0.2-1.1 0.3-1.7 0.3-1.1-0.1-1.9-0.5-2.3-1.7-0.3-0.9-0.7-1.8-1-2.7-0.1-0.3-0.3-0.5-0.6-0.5q-1.9 0.1-3.8 0.1-1.9 0-3.8 0c-0.3-0.1-0.5 0-0.6 0.3q-0.5 1.4-1 2.7c-0.5 1.4-1.5 2-3 1.7-1.9-0.2-2.6-1.2-2.2-3.2 0.3-1.3 0.8-2.4 1.2-3.6q2.8-7.4 5.7-14.8c0.5-1.4 1.5-2.4 3.1-2.7 1.7-0.4 3.5 0.8 4.2 2.6q1.6 4 3.1 8.1 1.8 4.5 3.5 9.1c0.3 0.9 0.5 1.7 0.4 2.6zm-7.9-7.7c-0.9-2.7-1.8-5.2-2.7-7.9-0.2 0.6-0.4 1-0.5 1.5q-1.1 3-2.2 6c-0.1 0.3 0 0.4 0.3 0.4q0.8-0.1 1.7 0 1.7 0 3.4 0z"/>
				</g>
			</g>
		</g>
		<g id="&lt;Group&gt;">
			<path id="&lt;Path&gt;" class="s0" d="m1058.8 482.6c0 37.2-30.2 67.5-67.5 67.5-37.2 0-67.5-30.3-67.5-67.5 0-37.3 30.3-67.5 67.5-67.5 37.3 0 67.5 30.2 67.5 67.5z"/>
			<g id="&lt;Group&gt;">
				<g id="FULL COLOR ICON 4 ">
					<g id="TYPE A 4 ">
						<g id="&lt;Group&gt;">
							<path id="&lt;Path&gt;" class="s1" d="m1037.1 476.1c0-20.6-20.6-37.4-46-37.4-25.4 0-46 16.8-46 37.4 0 18.4 16.4 33.9 38.5 36.8 1.5 0.3 3.5 1 4 2.2 0.5 1.2 0.3 3 0.2 4.2 0 0-0.6 3.3-0.7 3.9-0.2 1.2-0.9 4.6 4 2.5 4.9-2 26.5-15.6 36.2-26.7 6.6-7.3 9.8-14.7 9.8-22.9z"/>
							<g id="&lt;Group&gt;">
								<path id="&lt;Path&gt;" class="s0" d="m981.8 466.1h-3.3c-0.5 0-0.9 0.4-0.9 0.9v20c0 0.5 0.4 0.9 0.9 0.9h3.3c0.5 0 0.9-0.4 0.9-0.9v-20c0-0.5-0.4-0.9-0.9-0.9z"/>
								<path id="&lt;Path&gt;" class="s0" d="m1004 466.1h-3.3c-0.4 0-0.8 0.4-0.8 0.9v11.9l-9.2-12.4q-0.1 0-0.1-0.1 0 0 0 0 0 0-0.1-0.1 0 0 0 0 0 0 0 0 0 0-0.1 0 0 0 0-0.1 0 0 0 0 0 0-0.1 0 0 0 0 0 0 0-0.1 0 0 0 0 0 0-0.1 0-0.1 0 0-0.1 0 0 0 0 0 0 0-0.1 0 0 0 0 0 0 0 0 0-0.1 0-0.1 0h-3.2c-0.5 0-0.9 0.4-0.9 0.9v20c0 0.5 0.4 0.9 0.9 0.9h3.2c0.5 0 0.9-0.4 0.9-0.9v-11.9l9.2 12.5q0.1 0.1 0.2 0.2 0 0 0 0 0.1 0 0.1 0 0 0 0 0 0.1 0 0.1 0.1 0 0 0 0 0 0 0 0 0.1 0 0.1 0 0 0 0 0 0.1 0 0.2 0h3.3c0.5 0 0.9-0.4 0.9-0.9v-20c0-0.5-0.4-0.9-0.9-0.9z"/>
								<path id="&lt;Path&gt;" class="s0" d="m974 482.9h-8.8v-15.9c0-0.5-0.4-0.9-0.9-0.9h-3.2c-0.5 0-0.9 0.4-0.9 0.9v20q0 0.4 0.3 0.7 0 0 0 0 0 0 0 0 0.2 0.2 0.6 0.2h12.9c0.5 0 0.9-0.4 0.9-0.9v-3.2c0-0.5-0.4-0.9-0.9-0.9z"/>
								<path id="&lt;Path&gt;" class="s0" d="m1021.8 471.1c0.5 0 0.9-0.4 0.9-0.9v-3.2c0-0.5-0.4-0.9-0.9-0.9h-12.9q-0.4 0-0.6 0.3 0 0 0 0 0 0 0 0-0.3 0.2-0.3 0.6v20q0 0.4 0.3 0.7 0 0 0 0 0 0 0 0 0.2 0.2 0.6 0.2h12.9c0.5 0 0.9-0.4 0.9-0.9v-3.2c0-0.5-0.4-0.9-0.9-0.9h-8.8v-3.4h8.8c0.5 0 0.9-0.4 0.9-0.9v-3.2c0-0.5-0.4-0.9-0.9-0.9h-8.8v-3.4z"/>
							</g>
						</g>
					</g>
				</g>
			</g>
		</g>
		<g id="facebook">
			<path id="facebookcircle" class="s0 circle" d="m162.2 89.4c0-37.2-30.3-67.5-67.5-67.5-37.3 0-67.5 30.3-67.5 67.5 0 33.7 24.7 61.7 56.9 66.7v-47.1h-17.1v-19.6h17.1v-14.8c0-16.9 10.1-26.3 25.5-26.3 7.4 0 15.1 1.3 15.1 1.3v16.6h-8.5c-8.4 0-11 5.2-11 10.6v12.6h18.7l-3 19.6h-15.7v47.1c32.3-5 57-33 57-66.7z"/>
			<path id="facebookLogo" class="s1 logo" d="m120.9 109l3-19.6h-18.7v-12.6c0-5.4 2.6-10.6 11-10.6h8.5v-16.6c0 0-7.7-1.3-15.1-1.3-15.4 0-25.5 9.4-25.5 26.3v14.8h-17.1v19.6h17.1v47.1q5.2 0.8 10.6 0.8 5.4 0 10.5-0.8v-47.1z"/>
		</g>
		<g id="&lt;Group&gt;">
			<g id="&lt;Group&gt;">
				<g id="&lt;Group&gt;">
					<path id="&lt;Compound Path&gt;" fill-rule="evenodd" class="s0" d="m162.4 482.5c0 37.3-30.2 67.6-67.5 67.6-37.3 0-67.5-30.3-67.5-67.6 0-37.2 30.2-67.4 67.5-67.4 37.3 0 67.5 30.2 67.5 67.4zm-38 24.1c-17.8-10.8-39.8-13.4-65.5-7.5-2.3 0.5-3.7 2.8-3.2 5 0.5 2.3 2.8 3.7 5 3.2 23.5-5.4 43.5-3.2 59.3 6.5 2 1.2 4.6 0.6 5.8-1.4 1.2-2 0.6-4.6-1.4-5.8zm8-19.8c-20.9-12.8-51.4-16.4-75.9-9-2.7 0.9-4.3 3.8-3.5 6.6 0.9 2.8 3.8 4.3 6.6 3.5 21.5-6.5 49.1-3.3 67.3 7.9 2.4 1.5 5.7 0.7 7.2-1.8 1.5-2.4 0.7-5.7-1.7-7.2zm11.1-14.1c1.7-3 0.7-6.9-2.3-8.7-25-14.8-64.6-16.2-88.5-9-3.3 1-5.2 4.5-4.2 7.9 1 3.3 4.5 5.2 7.9 4.2 20.8-6.3 56.6-5.1 78.4 7.8 3 1.8 6.9 0.8 8.7-2.2z"/>
				</g>
			</g>
			<path id="&lt;Path&gt;" class="s1" d="m125.8 512.4c-1.2 2-3.8 2.6-5.8 1.4-15.8-9.7-35.8-11.9-59.3-6.5-2.2 0.5-4.5-0.9-5-3.2-0.5-2.2 0.9-4.5 3.2-5 25.7-5.9 47.7-3.3 65.5 7.5 2 1.2 2.6 3.8 1.4 5.8z"/>
			<path id="&lt;Path&gt;" class="s1" d="m134.1 494c-1.5 2.5-4.8 3.3-7.2 1.8-18.2-11.2-45.8-14.4-67.3-7.9-2.8 0.8-5.7-0.7-6.6-3.5-0.8-2.8 0.8-5.7 3.5-6.6 24.5-7.4 55-3.8 75.9 9 2.4 1.5 3.2 4.8 1.7 7.2z"/>
			<path id="&lt;Path&gt;" class="s1" d="m134.8 474.9c-21.8-12.9-57.6-14.1-78.4-7.8-3.4 1-6.9-0.9-7.9-4.2-1-3.4 0.9-6.9 4.2-7.9 23.9-7.2 63.5-5.8 88.5 9 3 1.8 4 5.7 2.3 8.7-1.8 3-5.7 4-8.7 2.2z"/>
		</g>
		<g id="&lt;Group&gt;">
			<g id="&lt;Group&gt;">
				<path id="&lt;Path&gt;" class="s0" d="m386.3 286.5c0 37.2-30.2 67.5-67.5 67.5-37.2 0-67.5-30.3-67.5-67.5 0-37.3 30.3-67.5 67.5-67.5 37.3 0 67.5 30.2 67.5 67.5z"/>
			</g>
			<path id="&lt;Path&gt;" class="s1" d="m356.7 264.2c0-0.4-0.1-0.5-0.5-0.4-1 0-1.9-0.2-2.9-0.3-3.5-0.5-15-6.5-16.9-16.4-0.1-0.2-0.5-2.6-0.5-3.6 0-0.5 0-0.5-0.5-0.5q-0.1 0-0.3 0-6.7 0-13.4 0c-0.9 0-0.8-0.1-0.8 0.8q0 29.1 0 58.3c0 0.7 0 1.4-0.1 2.2-0.7 3.7-2.6 6.7-5.9 8.7-2.8 1.7-5.9 2.2-9.2 1.6-1-0.2-1.9-0.6-2.9-1q-0.1-0.1-0.2-0.2c-0.4-0.3-0.7-0.5-1.1-0.8-4.1-2.8-6.1-6.8-5.5-11.8 0.6-5.1 3.5-8.5 8.3-10.3q2.2-0.8 4.5-0.6c1 0 2 0.1 2.9 0.4q0.5 0.2 0.5-0.4 0-0.1 0-0.3c0-3.5-0.1-11.1-0.1-11.2q0-1.5 0-3c0-0.3-0.1-0.3-0.4-0.3q-2.7-0.4-5.4-0.2-3.8 0.3-7.3 1.6-5.7 2-10 6.2-3.6 3.7-5.8 8.4-2 4.5-2.3 9.4-0.1 2.1 0 4.3 0.3 2.9 1.2 5.8c1.7 5.4 4.9 9.8 9.3 13.4 0.5 0.3 0.9 0.7 1.4 0.9q0 0 0 0 0.4 0.3 0.7 0.7 1.1 0.8 2.3 1.4c5 2.4 10.2 3.4 15.8 2.7 7.2-0.8 13.1-4 17.8-9.5 4.5-5.2 6.6-11.2 6.7-18 0-9.7 0-19.3 0-29 0-0.3-0.1-0.6 0.1-0.7 0.2-0.1 0.4 0.2 0.6 0.3 3.6 2.4 7.5 4.1 11.7 5 2.4 0.6 4.9 0.9 7.4 0.9 0.8 0 0.9 0 0.9-0.8 0-3.4-0.1-12.8-0.1-13.7z"/>
		</g>
		<g id="&lt;Group&gt;">
			<path id="&lt;Path&gt;" class="s0" d="m386.3 678.6c0 37.3-30.2 67.5-67.5 67.5-37.2 0-67.5-30.2-67.5-67.5 0-37.2 30.3-67.5 67.5-67.5 37.3 0 67.5 30.3 67.5 67.5z"/>
			<g id="&lt;Group&gt;">
				<g id="&lt;Group&gt;">
					<g id="Layer 1-2 4 ">
						<path id="&lt;Compound Path&gt;" fill-rule="evenodd" class="s1" d="m358.8 637v46.6l-30 30h-13.3l-16.7 16.7v-16.7h-20v-60l16.7-16.6zm-6.7 6.6h-53.3v50h15v11.7l11.7-11.7h13.3l13.3-13.3z"/>
						<path id="&lt;Path&gt;" class="s1" d="m335.5 655.3h6.7v20h-6.7z"/>
						<path id="&lt;Path&gt;" class="s1" d="m317.2 655.3h6.6v20h-6.6z"/>
					</g>
				</g>
			</g>
		</g>
		<g id="&lt;Group&gt;">
			<path id="&lt;Path&gt;" class="s0" d="m610.5 678.6c0 37.3-30.2 67.5-67.5 67.5-37.3 0-67.5-30.2-67.5-67.5 0-37.2 30.2-67.5 67.5-67.5 37.3 0 67.5 30.3 67.5 67.5z"/>
			<g id="&lt;Group&gt;">
				<path id="&lt;Path&gt;" class="s4" d="m588.4 695.9q0 0 0 0 0 0 0 0z"/>
				<path id="&lt;Compound Path&gt;" fill-rule="evenodd" class="s1" d="m588.5 697.8c0 14.8-12 26.8-26.8 26.8q-1.2 0-2.4-0.2-0.1 0-0.1 0 0 0-0.1 0-0.4 0-0.8-0.1-0.2 0-0.4 0-0.4-0.1-0.9-0.2-0.1 0-0.3 0-0.5-0.1-0.9-0.2-0.2 0-0.3-0.1-0.5-0.1-1-0.2 0 0-0.1-0.1-0.7-0.2-1.4-0.4 0 0-0.1 0 0 0-0.1-0.1-0.6-0.2-1.1-0.4-0.2 0-0.3-0.1-0.5-0.2-1-0.4 0 0 0 0-0.1 0-0.1-0.1-0.8-0.3-1.6-0.8-0.1 0-0.2-0.1-0.1-0.1-0.2-0.1-0.1-0.1-0.2-0.1 0 0 0 0-2.5 0.3-5.1 0.3c-23.5 0-42.5-19-42.5-42.4q0-3.1 0.5-6.1c-1.6-2.7-2.7-5.8-3.2-9q0-0.2 0-0.3-0.1-0.4-0.1-0.8 0-0.3-0.1-0.7 0-0.1 0-0.2 0 0 0 0-0.1-1.1-0.1-2.3c0-14.7 12-26.7 26.8-26.7q1.7 0 3.3 0.2 0 0 0.1 0 0 0 0.1 0.1 1.1 0.1 2.1 0.3 0.1 0 0.2 0 1.9 0.4 3.6 1.1 0 0 0 0 0.1 0.1 0.3 0.1 0.2 0.1 0.4 0.2 0 0 0 0 0.3 0.1 0.6 0.2 0.2 0.1 0.4 0.2 0.4 0.2 0.8 0.4 0 0 0.1 0 0 0 0.1 0.1 0.1 0 0.3 0.1 0.5 0.3 1 0.6 0.1 0 0.2 0.1 0.2 0.1 0.4 0.2 0 0 0 0 0.1 0.1 0.2 0.1 2.2-0.2 4.5-0.2c23.5 0 42.5 19 42.5 42.3q0 3-0.4 5.8c1.5 2.8 2.6 5.8 3.1 9q0 0.2 0 0.3 0.1 0.5 0.1 0.9 0.1 0.4 0.1 0.8 0 0.1 0 0.3 0 0 0 0 0.1 1 0.1 1.9zm-29.1-8.6c0.1-2.2-0.4-4.4-1.6-6.3-1.1-1.9-2.6-3.4-4.4-4.6q-3.4-2.2-7.2-3.7-0.4-0.2-0.8-0.3-3.9-1.6-5.8-2.6c-1.2-0.5-2.2-1.3-3.1-2.2-0.8-0.8-1.2-1.8-1.2-2.9-0.1-1.7 0.8-3.3 2.2-4.2 1.7-1 3.6-1.5 5.6-1.4q2.2 0 4.4 0.6 2.4 0.6 4.6 1.6 0.9 0.5 1.9 0.5c1 0 2-0.4 2.6-1.1 0.8-0.8 1.1-1.8 1.1-2.9 0-1-0.4-1.9-1-2.7-0.9-0.9-2-1.6-3.2-2q-2-0.7-4.1-1.1-2.9-0.4-5.8-0.4c-3 0-6 0.5-8.8 1.5-2.6 0.8-5 2.4-6.8 4.5-1.7 2-2.6 4.7-2.6 7.4 0 2.1 0.5 4.2 1.5 6.1 1 1.7 2.4 3.2 4.2 4.4q3.4 2.2 7.2 3.7 4.2 1.8 6.5 3c1.4 0.7 2.6 1.5 3.6 2.6 0.8 0.8 1.2 1.9 1.2 3 0 1.6-0.7 3.2-1.9 4.2-1.7 1.1-3.7 1.6-5.7 1.5q-1.7 0-3.4-0.4-1.4-0.3-2.6-0.8-1.2-0.5-3.1-1.4c-1-0.6-2.2-0.9-3.4-0.9-1-0.1-2 0.3-2.8 1-0.8 0.7-1.2 1.8-1.2 2.8 0 1 0.3 2 0.9 2.8 0.7 0.9 1.6 1.6 2.6 2 4 1.8 8.4 2.6 12.7 2.4 3.2 0.1 6.3-0.4 9.3-1.5 2.5-0.9 4.7-2.5 6.2-4.6 1.6-2.2 2.3-4.9 2.2-7.6z"/>
			</g>
		</g>
		<g id="&lt;Group&gt;">
			<path id="&lt;Path&gt;" class="s0" d="m318.8 808.2c-37.2 0-67.5 30.2-67.5 67.5 0 37.2 30.3 67.5 67.5 67.5 37.3 0 67.5-30.3 67.5-67.5 0-37.3-30.2-67.5-67.5-67.5z"/>
			<path id="&lt;Path&gt;" class="s1" d="m351.7 848.2c-0.3-0.7-0.6-0.9-1.1-1.1-1-0.4-2.8 0.2-2.8 0.2 0 0-63.1 22.7-66.7 25.2-0.8 0.5-1 0.8-1.1 1.2-0.7 1.8 1.3 2.6 1.3 2.6l16.2 5.3c0 0 0.6 0.1 0.9-0.1 3.7-2.3 37.2-23.5 39.1-24.2 0.3-0.1 0.5 0 0.5 0.2-0.8 2.8-29.9 28.6-29.9 28.6 0 0-0.1 0.2-0.2 0.3l-1.5 16.1c0 0-0.7 5 4.3 0 3.4-3.4 6.8-6.4 8.5-7.8 5.6 3.9 11.6 8.1 14.2 10.4 1.3 1.1 2.4 1.3 3.3 1.2 2.5 0 3.2-2.8 3.2-2.8 0 0 11.5-46.2 11.8-52.4 0.1-0.6 0.1-1 0.1-1.4 0-0.6 0-1.2-0.1-1.5z"/>
		</g>
	</g>
</svg>